<svg xmlns="http://www.w3.org/2000/svg" xmlns:xlink="http://www.w3.org/1999/xlink" width="2100" zoomAndPan="magnify" viewBox="0 0 1574.88 374.999991" height="500" preserveAspectRatio="xMidYMid meet" version="1.0"><defs><g/><clipPath id="b525903de9"><path d="M 37.496094 93.84375 L 184 93.84375 L 184 281.328125 L 37.496094 281.328125 Z M 37.496094 93.84375 " clip-rule="nonzero"/></clipPath><clipPath id="101ac8c77c"><path d="M 106 93.84375 L 251.980469 93.84375 L 251.980469 281.328125 L 106 281.328125 Z M 106 93.84375 " clip-rule="nonzero"/></clipPath><clipPath id="d29750e9a8"><path d="M 78 93.84375 L 184 93.84375 L 184 244 L 78 244 Z M 78 93.84375 " clip-rule="nonzero"/></clipPath><clipPath id="fb661c118a"><path d="M 37.496094 166 L 156 166 L 156 281.328125 L 37.496094 281.328125 Z M 37.496094 166 " clip-rule="nonzero"/></clipPath><clipPath id="7f8d3e0874"><path d="M 106 93.84375 L 211 93.84375 L 211 244 L 106 244 Z M 106 93.84375 " clip-rule="nonzero"/></clipPath><clipPath id="bae7e07598"><path d="M 133 166 L 251.980469 166 L 251.980469 281.328125 L 133 281.328125 Z M 133 166 " clip-rule="nonzero"/></clipPath><clipPath id="9f7682265d"><path d="M 37.496094 210 L 184 210 L 184 281.328125 L 37.496094 281.328125 Z M 37.496094 210 " clip-rule="nonzero"/></clipPath><clipPath id="fdcdeaa502"><path d="M 106 210 L 251.980469 210 L 251.980469 281.328125 L 106 281.328125 Z M 106 210 " clip-rule="nonzero"/></clipPath><clipPath id="1934a4e33b"><path d="M 37.496094 183 L 184 183 L 184 281.328125 L 37.496094 281.328125 Z M 37.496094 183 " clip-rule="nonzero"/></clipPath><clipPath id="b3361afeb6"><path d="M 106 183 L 251.980469 183 L 251.980469 281.328125 L 106 281.328125 Z M 106 183 " clip-rule="nonzero"/></clipPath><clipPath id="cbf9492d23"><path d="M 37.496094 257 L 62 257 L 62 281.328125 L 37.496094 281.328125 Z M 37.496094 257 " clip-rule="nonzero"/></clipPath><clipPath id="5a214d5e5c"><path d="M 227 257 L 251.980469 257 L 251.980469 281.328125 L 227 281.328125 Z M 227 257 " clip-rule="nonzero"/></clipPath></defs><g clip-path="url(#b525903de9)"><path stroke-linecap="round" transform="matrix(3.398178, 0, 0, 3.398178, 35.822268, 85.644752)" fill="none" stroke-linejoin="miter" d="M 31.999565 6.000392 L 3.99973 53.999454 " stroke="#8e7396" stroke-width="2" stroke-opacity="1" stroke-miterlimit="4"/></g><path stroke-linecap="round" transform="matrix(3.398178, 0, 0, 3.398178, 35.822268, 85.644752)" fill="none" stroke-linejoin="miter" d="M 3.99973 53.999454 L 60.00055 53.999454 " stroke="#8e7396" stroke-width="2" stroke-opacity="1" stroke-miterlimit="4"/><g clip-path="url(#101ac8c77c)"><path stroke-linecap="round" transform="matrix(3.398178, 0, 0, 3.398178, 35.822268, 85.644752)" fill="none" stroke-linejoin="miter" d="M 60.00055 53.999454 L 31.999565 6.000392 " stroke="#8e7396" stroke-width="2" stroke-opacity="1" stroke-miterlimit="4"/></g><g clip-path="url(#d29750e9a8)"><path stroke-linecap="round" transform="matrix(3.398178, 0, 0, 3.398178, 35.822268, 85.644752)" fill="none" stroke-linejoin="miter" d="M 31.999565 6.000392 L 24.000105 35.000304 " stroke="#8e7396" stroke-width="2" stroke-opacity="1" stroke-miterlimit="4"/></g><g clip-path="url(#fb661c118a)"><path stroke-linecap="round" transform="matrix(3.398178, 0, 0, 3.398178, 35.822268, 85.644752)" fill="none" stroke-linejoin="miter" d="M 3.99973 53.999454 L 24.000105 35.000304 " stroke="#8e7396" stroke-width="2" stroke-opacity="1" stroke-miterlimit="4"/></g><g clip-path="url(#7f8d3e0874)"><path stroke-linecap="round" transform="matrix(3.398178, 0, 0, 3.398178, 35.822268, 85.644752)" fill="none" stroke-linejoin="miter" d="M 31.999565 6.000392 L 40.000175 35.000304 " stroke="#8e7396" stroke-width="2" stroke-opacity="1" stroke-miterlimit="4"/></g><g clip-path="url(#bae7e07598)"><path stroke-linecap="round" transform="matrix(3.398178, 0, 0, 3.398178, 35.822268, 85.644752)" fill="none" stroke-linejoin="miter" d="M 60.00055 53.999454 L 40.000175 35.000304 " stroke="#8e7396" stroke-width="2" stroke-opacity="1" stroke-miterlimit="4"/></g><g clip-path="url(#9f7682265d)"><path stroke-linecap="round" transform="matrix(3.398178, 0, 0, 3.398178, 35.822268, 85.644752)" fill="none" stroke-linejoin="miter" d="M 3.99973 53.999454 L 31.999565 48.000146 " stroke="#8e7396" stroke-width="2" stroke-opacity="1" stroke-miterlimit="4"/></g><g clip-path="url(#fdcdeaa502)"><path stroke-linecap="round" transform="matrix(3.398178, 0, 0, 3.398178, 35.822268, 85.644752)" fill="none" stroke-linejoin="miter" d="M 60.00055 53.999454 L 31.999565 48.000146 " stroke="#8e7396" stroke-width="2" stroke-opacity="1" stroke-miterlimit="4"/></g><path stroke-linecap="round" transform="matrix(3.398178, 0, 0, 3.398178, 35.822268, 85.644752)" fill="none" stroke-linejoin="miter" d="M 31.999565 6.000392 L 31.999565 39.999536 " stroke="#8e7396" stroke-width="2" stroke-opacity="1" stroke-miterlimit="4"/><g clip-path="url(#1934a4e33b)"><path stroke-linecap="round" transform="matrix(3.398178, 0, 0, 3.398178, 35.822268, 85.644752)" fill="none" stroke-linejoin="miter" d="M 3.99973 53.999454 L 31.999565 39.999536 " stroke="#8e7396" stroke-width="2" stroke-opacity="1" stroke-miterlimit="4"/></g><g clip-path="url(#b3361afeb6)"><path stroke-linecap="round" transform="matrix(3.398178, 0, 0, 3.398178, 35.822268, 85.644752)" fill="none" stroke-linejoin="miter" d="M 60.00055 53.999454 L 31.999565 39.999536 " stroke="#8e7396" stroke-width="2" stroke-opacity="1" stroke-miterlimit="4"/></g><path stroke-linecap="round" transform="matrix(3.398178, 0, 0, 3.398178, 35.822268, 85.644752)" fill="none" stroke-linejoin="miter" d="M 24.000105 35.000304 L 31.999565 39.999536 " stroke="#8e7396" stroke-width="1.5" stroke-opacity="1" stroke-miterlimit="4"/><path stroke-linecap="round" transform="matrix(3.398178, 0, 0, 3.398178, 35.822268, 85.644752)" fill="none" stroke-linejoin="miter" d="M 40.000175 35.000304 L 31.999565 39.999536 " stroke="#8e7396" stroke-width="1.5" stroke-opacity="1" stroke-miterlimit="4"/><path stroke-linecap="round" transform="matrix(3.398178, 0, 0, 3.398178, 35.822268, 85.644752)" fill="none" stroke-linejoin="miter" d="M 31.999565 48.000146 L 31.999565 39.999536 " stroke="#8e7396" stroke-width="1.5" stroke-opacity="1" stroke-miterlimit="4"/><path fill="#8e7396" d="M 153.058594 221.570312 C 153.058594 222.128906 153.003906 222.683594 152.894531 223.230469 C 152.789062 223.777344 152.625 224.308594 152.414062 224.824219 C 152.199219 225.339844 151.9375 225.828125 151.628906 226.292969 C 151.316406 226.753906 150.964844 227.183594 150.570312 227.578125 C 150.175781 227.972656 149.746094 228.324219 149.285156 228.636719 C 148.820312 228.945312 148.332031 229.207031 147.816406 229.421875 C 147.300781 229.632812 146.769531 229.796875 146.222656 229.902344 C 145.675781 230.011719 145.121094 230.066406 144.5625 230.066406 C 144.007812 230.066406 143.453125 230.011719 142.90625 229.902344 C 142.359375 229.796875 141.828125 229.632812 141.3125 229.421875 C 140.796875 229.207031 140.308594 228.945312 139.84375 228.636719 C 139.378906 228.324219 138.953125 227.972656 138.558594 227.578125 C 138.164062 227.183594 137.808594 226.753906 137.5 226.292969 C 137.191406 225.828125 136.929688 225.339844 136.714844 224.824219 C 136.5 224.308594 136.339844 223.777344 136.230469 223.230469 C 136.121094 222.683594 136.070312 222.128906 136.070312 221.570312 C 136.070312 221.015625 136.121094 220.460938 136.230469 219.914062 C 136.339844 219.367188 136.5 218.835938 136.714844 218.320312 C 136.929688 217.804688 137.191406 217.316406 137.5 216.851562 C 137.808594 216.386719 138.164062 215.960938 138.558594 215.566406 C 138.953125 215.171875 139.378906 214.816406 139.84375 214.507812 C 140.308594 214.199219 140.796875 213.9375 141.3125 213.722656 C 141.828125 213.507812 142.359375 213.347656 142.90625 213.238281 C 143.453125 213.128906 144.007812 213.078125 144.5625 213.078125 C 145.121094 213.078125 145.675781 213.128906 146.222656 213.238281 C 146.769531 213.347656 147.300781 213.507812 147.816406 213.722656 C 148.332031 213.9375 148.820312 214.199219 149.285156 214.507812 C 149.746094 214.816406 150.175781 215.171875 150.570312 215.566406 C 150.964844 215.960938 151.316406 216.386719 151.628906 216.851562 C 151.9375 217.316406 152.199219 217.804688 152.414062 218.320312 C 152.625 218.835938 152.789062 219.367188 152.894531 219.914062 C 153.003906 220.460938 153.058594 221.015625 153.058594 221.570312 Z M 153.058594 221.570312 " fill-opacity="1" fill-rule="nonzero"/><path fill="#8e7396" d="M 124.175781 204.582031 C 124.175781 205.027344 124.132812 205.46875 124.042969 205.90625 C 123.957031 206.34375 123.828125 206.769531 123.65625 207.183594 C 123.488281 207.59375 123.277344 207.984375 123.03125 208.355469 C 122.78125 208.726562 122.5 209.070312 122.183594 209.386719 C 121.867188 209.703125 121.527344 209.984375 121.15625 210.230469 C 120.785156 210.480469 120.390625 210.6875 119.980469 210.859375 C 119.566406 211.03125 119.140625 211.160156 118.703125 211.246094 C 118.265625 211.332031 117.824219 211.378906 117.378906 211.378906 C 116.933594 211.378906 116.492188 211.332031 116.050781 211.246094 C 115.613281 211.160156 115.191406 211.03125 114.777344 210.859375 C 114.367188 210.6875 113.972656 210.480469 113.601562 210.230469 C 113.230469 209.984375 112.886719 209.703125 112.574219 209.386719 C 112.257812 209.070312 111.976562 208.726562 111.726562 208.355469 C 111.480469 207.984375 111.269531 207.59375 111.097656 207.183594 C 110.929688 206.769531 110.800781 206.34375 110.710938 205.90625 C 110.625 205.46875 110.582031 205.027344 110.582031 204.582031 C 110.582031 204.132812 110.625 203.691406 110.710938 203.253906 C 110.800781 202.816406 110.929688 202.390625 111.097656 201.980469 C 111.269531 201.566406 111.480469 201.175781 111.726562 200.804688 C 111.976562 200.433594 112.257812 200.089844 112.574219 199.773438 C 112.886719 199.460938 113.230469 199.179688 113.601562 198.929688 C 113.972656 198.683594 114.367188 198.472656 114.777344 198.300781 C 115.191406 198.132812 115.613281 198.003906 116.050781 197.914062 C 116.492188 197.828125 116.933594 197.785156 117.378906 197.785156 C 117.824219 197.785156 118.265625 197.828125 118.703125 197.914062 C 119.140625 198.003906 119.566406 198.132812 119.980469 198.300781 C 120.390625 198.472656 120.785156 198.683594 121.15625 198.929688 C 121.527344 199.179688 121.867188 199.460938 122.183594 199.773438 C 122.5 200.089844 122.78125 200.433594 123.03125 200.804688 C 123.277344 201.175781 123.488281 201.566406 123.65625 201.980469 C 123.828125 202.390625 123.957031 202.816406 124.042969 203.253906 C 124.132812 203.691406 124.175781 204.132812 124.175781 204.582031 Z M 124.175781 204.582031 " fill-opacity="1" fill-rule="nonzero"/><path fill="#8e7396" d="M 178.546875 204.582031 C 178.546875 205.027344 178.503906 205.46875 178.414062 205.90625 C 178.328125 206.34375 178.199219 206.769531 178.027344 207.183594 C 177.859375 207.59375 177.648438 207.984375 177.398438 208.355469 C 177.152344 208.726562 176.871094 209.070312 176.554688 209.386719 C 176.238281 209.703125 175.894531 209.984375 175.523438 210.230469 C 175.152344 210.480469 174.761719 210.6875 174.351562 210.859375 C 173.9375 211.03125 173.511719 211.160156 173.074219 211.246094 C 172.636719 211.332031 172.195312 211.378906 171.75 211.378906 C 171.304688 211.378906 170.859375 211.332031 170.421875 211.246094 C 169.984375 211.160156 169.5625 211.03125 169.148438 210.859375 C 168.734375 210.6875 168.34375 210.480469 167.972656 210.230469 C 167.601562 209.984375 167.257812 209.703125 166.945312 209.386719 C 166.628906 209.070312 166.347656 208.726562 166.097656 208.355469 C 165.851562 207.984375 165.640625 207.59375 165.46875 207.183594 C 165.300781 206.769531 165.171875 206.34375 165.082031 205.90625 C 164.996094 205.46875 164.953125 205.027344 164.953125 204.582031 C 164.953125 204.132812 164.996094 203.691406 165.082031 203.253906 C 165.171875 202.816406 165.300781 202.390625 165.46875 201.980469 C 165.640625 201.566406 165.851562 201.175781 166.097656 200.804688 C 166.347656 200.433594 166.628906 200.089844 166.945312 199.773438 C 167.257812 199.460938 167.601562 199.179688 167.972656 198.929688 C 168.34375 198.683594 168.734375 198.472656 169.148438 198.300781 C 169.5625 198.132812 169.984375 198.003906 170.421875 197.914062 C 170.859375 197.828125 171.304688 197.785156 171.75 197.785156 C 172.195312 197.785156 172.636719 197.828125 173.074219 197.914062 C 173.511719 198.003906 173.9375 198.132812 174.351562 198.300781 C 174.761719 198.472656 175.152344 198.683594 175.523438 198.929688 C 175.894531 199.179688 176.238281 199.460938 176.554688 199.773438 C 176.871094 200.089844 177.152344 200.433594 177.398438 200.804688 C 177.648438 201.175781 177.859375 201.566406 178.027344 201.980469 C 178.199219 202.390625 178.328125 202.816406 178.414062 203.253906 C 178.503906 203.691406 178.546875 204.132812 178.546875 204.582031 Z M 178.546875 204.582031 " fill-opacity="1" fill-rule="nonzero"/><path fill="#8e7396" d="M 151.359375 248.757812 C 151.359375 249.203125 151.316406 249.644531 151.230469 250.082031 C 151.144531 250.519531 151.015625 250.945312 150.84375 251.359375 C 150.671875 251.769531 150.460938 252.160156 150.214844 252.53125 C 149.96875 252.902344 149.683594 253.246094 149.371094 253.5625 C 149.054688 253.878906 148.710938 254.160156 148.339844 254.410156 C 147.96875 254.65625 147.578125 254.867188 147.164062 255.035156 C 146.753906 255.207031 146.328125 255.335938 145.890625 255.421875 C 145.453125 255.511719 145.011719 255.554688 144.5625 255.554688 C 144.117188 255.554688 143.675781 255.511719 143.238281 255.421875 C 142.800781 255.335938 142.375 255.207031 141.964844 255.035156 C 141.550781 254.867188 141.160156 254.65625 140.789062 254.410156 C 140.417969 254.160156 140.074219 253.878906 139.757812 253.5625 C 139.441406 253.246094 139.160156 252.902344 138.914062 252.53125 C 138.664062 252.160156 138.457031 251.769531 138.285156 251.359375 C 138.113281 250.945312 137.984375 250.519531 137.898438 250.082031 C 137.8125 249.644531 137.769531 249.203125 137.769531 248.757812 C 137.769531 248.3125 137.8125 247.867188 137.898438 247.429688 C 137.984375 246.992188 138.113281 246.570312 138.285156 246.15625 C 138.457031 245.746094 138.664062 245.351562 138.914062 244.980469 C 139.160156 244.609375 139.441406 244.265625 139.757812 243.953125 C 140.074219 243.636719 140.417969 243.355469 140.789062 243.105469 C 141.160156 242.859375 141.550781 242.648438 141.964844 242.476562 C 142.375 242.308594 142.800781 242.179688 143.238281 242.089844 C 143.675781 242.003906 144.117188 241.960938 144.5625 241.960938 C 145.011719 241.960938 145.453125 242.003906 145.890625 242.089844 C 146.328125 242.179688 146.753906 242.308594 147.164062 242.476562 C 147.578125 242.648438 147.96875 242.859375 148.339844 243.105469 C 148.710938 243.355469 149.054688 243.636719 149.371094 243.953125 C 149.683594 244.265625 149.96875 244.609375 150.214844 244.980469 C 150.460938 245.351562 150.671875 245.746094 150.84375 246.15625 C 151.015625 246.570312 151.144531 246.992188 151.230469 247.429688 C 151.316406 247.867188 151.359375 248.3125 151.359375 248.757812 Z M 151.359375 248.757812 " fill-opacity="1" fill-rule="nonzero"/><path fill="#8e7396" d="M 156.457031 106.035156 C 156.457031 106.816406 156.382812 107.589844 156.230469 108.355469 C 156.078125 109.121094 155.851562 109.863281 155.550781 110.585938 C 155.253906 111.308594 154.886719 111.992188 154.453125 112.640625 C 154.019531 113.289062 153.527344 113.890625 152.972656 114.445312 C 152.421875 114.996094 151.820312 115.488281 151.171875 115.921875 C 150.523438 116.355469 149.835938 116.722656 149.117188 117.023438 C 148.394531 117.320312 147.648438 117.546875 146.882812 117.699219 C 146.117188 117.851562 145.34375 117.925781 144.5625 117.925781 C 143.78125 117.925781 143.007812 117.851562 142.242188 117.699219 C 141.476562 117.546875 140.734375 117.320312 140.011719 117.023438 C 139.289062 116.722656 138.605469 116.355469 137.957031 115.921875 C 137.308594 115.488281 136.707031 114.996094 136.152344 114.445312 C 135.601562 113.890625 135.109375 113.289062 134.675781 112.640625 C 134.242188 111.992188 133.875 111.308594 133.574219 110.585938 C 133.277344 109.863281 133.050781 109.121094 132.898438 108.355469 C 132.746094 107.589844 132.671875 106.816406 132.671875 106.035156 C 132.671875 105.253906 132.746094 104.480469 132.898438 103.714844 C 133.050781 102.949219 133.277344 102.203125 133.574219 101.480469 C 133.875 100.761719 134.242188 100.074219 134.675781 99.425781 C 135.109375 98.777344 135.601562 98.175781 136.152344 97.625 C 136.707031 97.070312 137.308594 96.578125 137.957031 96.144531 C 138.605469 95.710938 139.289062 95.34375 140.011719 95.046875 C 140.734375 94.746094 141.476562 94.519531 142.242188 94.367188 C 143.007812 94.214844 143.78125 94.140625 144.5625 94.140625 C 145.34375 94.140625 146.117188 94.214844 146.882812 94.367188 C 147.648438 94.519531 148.394531 94.746094 149.117188 95.046875 C 149.835938 95.34375 150.523438 95.710938 151.171875 96.144531 C 151.820312 96.578125 152.421875 97.070312 152.972656 97.625 C 153.527344 98.175781 154.019531 98.777344 154.453125 99.425781 C 154.886719 100.074219 155.253906 100.761719 155.550781 101.480469 C 155.851562 102.203125 156.078125 102.949219 156.230469 103.714844 C 156.382812 104.480469 156.457031 105.253906 156.457031 106.035156 Z M 156.457031 106.035156 " fill-opacity="1" fill-rule="nonzero"/><g clip-path="url(#cbf9492d23)"><path fill="#8e7396" d="M 61.308594 269.144531 C 61.308594 269.925781 61.234375 270.699219 61.078125 271.464844 C 60.925781 272.234375 60.703125 272.976562 60.402344 273.699219 C 60.105469 274.417969 59.738281 275.105469 59.304688 275.753906 C 58.871094 276.402344 58.378906 277.003906 57.824219 277.554688 C 57.273438 278.109375 56.671875 278.601562 56.023438 279.035156 C 55.375 279.46875 54.6875 279.835938 53.964844 280.132812 C 53.246094 280.433594 52.5 280.660156 51.734375 280.8125 C 50.96875 280.964844 50.195312 281.039062 49.414062 281.039062 C 48.632812 281.039062 47.859375 280.964844 47.09375 280.8125 C 46.328125 280.660156 45.585938 280.433594 44.863281 280.132812 C 44.140625 279.835938 43.457031 279.46875 42.808594 279.035156 C 42.15625 278.601562 41.558594 278.109375 41.003906 277.554688 C 40.453125 277.003906 39.960938 276.402344 39.527344 275.753906 C 39.09375 275.105469 38.726562 274.417969 38.425781 273.699219 C 38.128906 272.976562 37.902344 272.234375 37.75 271.464844 C 37.597656 270.699219 37.519531 269.925781 37.519531 269.144531 C 37.519531 268.367188 37.597656 267.59375 37.75 266.824219 C 37.902344 266.058594 38.128906 265.316406 38.425781 264.59375 C 38.726562 263.875 39.09375 263.1875 39.527344 262.539062 C 39.960938 261.890625 40.453125 261.289062 41.003906 260.734375 C 41.558594 260.183594 42.15625 259.691406 42.808594 259.257812 C 43.457031 258.824219 44.140625 258.457031 44.863281 258.15625 C 45.585938 257.859375 46.328125 257.632812 47.09375 257.480469 C 47.859375 257.328125 48.632812 257.253906 49.414062 257.253906 C 50.195312 257.253906 50.96875 257.328125 51.734375 257.480469 C 52.5 257.632812 53.246094 257.859375 53.964844 258.15625 C 54.6875 258.457031 55.375 258.824219 56.023438 259.257812 C 56.671875 259.691406 57.273438 260.183594 57.824219 260.734375 C 58.378906 261.289062 58.871094 261.890625 59.304688 262.539062 C 59.738281 263.1875 60.105469 263.875 60.402344 264.59375 C 60.703125 265.316406 60.925781 266.058594 61.078125 266.824219 C 61.234375 267.59375 61.308594 268.367188 61.308594 269.144531 Z M 61.308594 269.144531 " fill-opacity="1" fill-rule="nonzero"/></g><g clip-path="url(#5a214d5e5c)"><path fill="#8e7396" d="M 251.605469 269.144531 C 251.605469 269.925781 251.53125 270.699219 251.378906 271.464844 C 251.226562 272.234375 251 272.976562 250.703125 273.699219 C 250.402344 274.417969 250.035156 275.105469 249.601562 275.753906 C 249.167969 276.402344 248.675781 277.003906 248.121094 277.554688 C 247.570312 278.109375 246.96875 278.601562 246.320312 279.035156 C 245.671875 279.46875 244.984375 279.835938 244.265625 280.132812 C 243.542969 280.433594 242.800781 280.660156 242.035156 280.8125 C 241.265625 280.964844 240.492188 281.039062 239.714844 281.039062 C 238.933594 281.039062 238.160156 280.964844 237.394531 280.8125 C 236.625 280.660156 235.882812 280.433594 235.160156 280.132812 C 234.441406 279.835938 233.753906 279.46875 233.105469 279.035156 C 232.457031 278.601562 231.855469 278.109375 231.304688 277.554688 C 230.75 277.003906 230.257812 276.402344 229.824219 275.753906 C 229.390625 275.105469 229.023438 274.417969 228.726562 273.699219 C 228.425781 272.976562 228.199219 272.234375 228.046875 271.464844 C 227.894531 270.699219 227.820312 269.925781 227.820312 269.144531 C 227.820312 268.367188 227.894531 267.59375 228.046875 266.824219 C 228.199219 266.058594 228.425781 265.316406 228.726562 264.59375 C 229.023438 263.875 229.390625 263.1875 229.824219 262.539062 C 230.257812 261.890625 230.75 261.289062 231.304688 260.734375 C 231.855469 260.183594 232.457031 259.691406 233.105469 259.257812 C 233.753906 258.824219 234.441406 258.457031 235.160156 258.15625 C 235.882812 257.859375 236.625 257.632812 237.394531 257.480469 C 238.160156 257.328125 238.933594 257.253906 239.714844 257.253906 C 240.492188 257.253906 241.265625 257.328125 242.035156 257.480469 C 242.800781 257.632812 243.542969 257.859375 244.265625 258.15625 C 244.984375 258.457031 245.671875 258.824219 246.320312 259.257812 C 246.96875 259.691406 247.570312 260.183594 248.121094 260.734375 C 248.675781 261.289062 249.167969 261.890625 249.601562 262.539062 C 250.035156 263.1875 250.402344 263.875 250.703125 264.59375 C 251 265.316406 251.226562 266.058594 251.378906 266.824219 C 251.53125 267.59375 251.605469 268.367188 251.605469 269.144531 Z M 251.605469 269.144531 " fill-opacity="1" fill-rule="nonzero"/></g><g fill="#244952" fill-opacity="1"><g transform="translate(255.585116, 259.86947)"><g><path d="M 49.296875 -5.796875 C 49.296875 -3.992188 48.710938 -2.578125 47.546875 -1.546875 C 46.378906 -0.515625 44.53125 0 42 0 L 10.296875 0 C 7.828125 0 5.976562 -0.515625 4.75 -1.546875 C 3.519531 -2.578125 2.90625 -3.960938 2.90625 -5.703125 C 2.90625 -6.960938 3.238281 -8.039062 3.90625 -8.9375 C 4.570312 -9.84375 5.671875 -10.726562 7.203125 -11.59375 L 9.796875 -12.90625 C 11.265625 -13.695312 12.460938 -14.578125 13.390625 -15.546875 C 14.328125 -16.515625 15.175781 -17.847656 15.9375 -19.546875 C 16.707031 -21.242188 17.5625 -23.59375 18.5 -26.59375 L 47.296875 -116.6875 C 48.359375 -120.15625 48.707031 -122.640625 48.34375 -124.140625 C 47.976562 -125.640625 46.597656 -126.890625 44.203125 -127.890625 C 42.328125 -128.617188 41.003906 -129.5 40.234375 -130.53125 C 39.472656 -131.570312 39.09375 -132.828125 39.09375 -134.296875 C 39.09375 -136.023438 39.707031 -137.40625 40.9375 -138.4375 C 42.175781 -139.46875 44.0625 -139.984375 46.59375 -139.984375 L 103.296875 -139.984375 C 105.828125 -139.984375 107.691406 -139.46875 108.890625 -138.4375 C 110.085938 -137.40625 110.6875 -136.023438 110.6875 -134.296875 C 110.6875 -131.359375 109.085938 -129.253906 105.890625 -127.984375 C 104.160156 -127.316406 103.128906 -126.398438 102.796875 -125.234375 C 102.460938 -124.066406 102.726562 -122.1875 103.59375 -119.59375 L 134.296875 -25.09375 C 135.492188 -21.226562 136.675781 -18.363281 137.84375 -16.5 C 139.007812 -14.632812 140.625 -13.300781 142.6875 -12.5 C 144.820312 -11.5 146.269531 -10.515625 147.03125 -9.546875 C 147.800781 -8.578125 148.1875 -7.328125 148.1875 -5.796875 C 148.1875 -3.992188 147.566406 -2.578125 146.328125 -1.546875 C 145.097656 -0.515625 143.21875 0 140.6875 0 L 92.1875 0 C 89.65625 0 87.789062 -0.515625 86.59375 -1.546875 C 85.394531 -2.578125 84.796875 -3.992188 84.796875 -5.796875 C 84.796875 -7.203125 85.175781 -8.351562 85.9375 -9.25 C 86.707031 -10.144531 87.925781 -10.925781 89.59375 -11.59375 L 94.09375 -12.90625 C 95.820312 -13.632812 96.601562 -14.628906 96.4375 -15.890625 C 96.269531 -17.160156 95.722656 -19.226562 94.796875 -22.09375 L 87.5 -45.5 L 40.09375 -45.5 L 34.796875 -28.703125 C 33.796875 -25.628906 33.28125 -23.144531 33.25 -21.25 C 33.21875 -19.351562 33.785156 -17.753906 34.953125 -16.453125 C 36.117188 -15.148438 37.96875 -13.898438 40.5 -12.703125 L 44.59375 -11.40625 C 46.125 -10.738281 47.289062 -9.988281 48.09375 -9.15625 C 48.894531 -8.320312 49.296875 -7.203125 49.296875 -5.796875 Z M 44.203125 -58.296875 L 83.5 -58.296875 L 64 -120.484375 Z M 44.203125 -58.296875 "/></g></g></g><g fill="#97d181" fill-opacity="1"><g transform="translate(408.280509, 259.86947)"><g><path d="M 9.703125 -5.796875 C 9.703125 -7.328125 10.082031 -8.609375 10.84375 -9.640625 C 11.613281 -10.679688 12.832031 -11.5 14.5 -12.09375 L 19.203125 -13.40625 C 22.535156 -14.53125 24.203125 -16.59375 24.203125 -19.59375 L 24.203125 -120.390625 C 24.203125 -123.390625 22.535156 -125.457031 19.203125 -126.59375 L 14.5 -127.890625 C 12.832031 -128.492188 11.613281 -129.328125 10.84375 -130.390625 C 10.082031 -131.453125 9.703125 -132.71875 9.703125 -134.1875 C 9.703125 -135.988281 10.300781 -137.40625 11.5 -138.4375 C 12.695312 -139.46875 14.5625 -139.984375 17.09375 -139.984375 L 74.796875 -139.984375 C 87.128906 -139.984375 98.328125 -138.164062 108.390625 -134.53125 C 118.453125 -130.90625 127.113281 -125.757812 134.375 -119.09375 C 141.644531 -112.425781 147.226562 -104.523438 151.125 -95.390625 C 155.03125 -86.253906 156.984375 -76.222656 156.984375 -65.296875 C 156.984375 -55.898438 155.316406 -47.21875 151.984375 -39.25 C 148.648438 -31.28125 143.816406 -24.363281 137.484375 -18.5 C 131.148438 -12.632812 123.5 -8.082031 114.53125 -4.84375 C 105.570312 -1.613281 95.457031 0 84.1875 0 L 17.09375 0 C 14.5625 0 12.695312 -0.515625 11.5 -1.546875 C 10.300781 -2.578125 9.703125 -3.992188 9.703125 -5.796875 Z M 79.6875 -12.296875 C 87.019531 -12.296875 93.484375 -14.195312 99.078125 -18 C 104.679688 -21.800781 109.082031 -27.648438 112.28125 -35.546875 C 115.488281 -43.441406 117.09375 -53.523438 117.09375 -65.796875 C 117.09375 -78.660156 115.207031 -89.707031 111.4375 -98.9375 C 107.675781 -108.175781 102.3125 -115.273438 95.34375 -120.234375 C 88.375 -125.203125 80.023438 -127.6875 70.296875 -127.6875 L 63 -127.6875 L 63 -22.5 C 63 -18.894531 63.945312 -16.289062 65.84375 -14.6875 C 67.738281 -13.09375 70.519531 -12.296875 74.1875 -12.296875 Z M 79.6875 -12.296875 "/></g></g></g><g fill="#dfa649" fill-opacity="1"><g transform="translate(572.07271, 259.86947)"><g><path d="M 62.890625 -19.59375 C 62.890625 -16.59375 64.59375 -14.53125 68 -13.40625 L 72.6875 -12.09375 C 74.425781 -11.5 75.644531 -10.679688 76.34375 -9.640625 C 77.039062 -8.609375 77.390625 -7.328125 77.390625 -5.796875 C 77.390625 -3.992188 76.804688 -2.578125 75.640625 -1.546875 C 74.472656 -0.515625 72.625 0 70.09375 0 L 17.09375 0 C 14.5625 0 12.695312 -0.515625 11.5 -1.546875 C 10.300781 -2.578125 9.703125 -3.992188 9.703125 -5.796875 C 9.703125 -7.328125 10.066406 -8.609375 10.796875 -9.640625 C 11.535156 -10.679688 12.738281 -11.5 14.40625 -12.09375 L 19.09375 -13.40625 C 22.5 -14.53125 24.203125 -16.59375 24.203125 -19.59375 L 24.203125 -120.390625 C 24.203125 -123.453125 22.5 -125.519531 19.09375 -126.59375 L 14.40625 -127.890625 C 12.738281 -128.492188 11.535156 -129.328125 10.796875 -130.390625 C 10.066406 -131.453125 9.703125 -132.71875 9.703125 -134.1875 C 9.703125 -135.988281 10.300781 -137.40625 11.5 -138.4375 C 12.695312 -139.46875 14.5625 -139.984375 17.09375 -139.984375 L 70.09375 -139.984375 C 72.625 -139.984375 74.472656 -139.46875 75.640625 -138.4375 C 76.804688 -137.40625 77.390625 -135.988281 77.390625 -134.1875 C 77.390625 -132.71875 77.039062 -131.453125 76.34375 -130.390625 C 75.644531 -129.328125 74.425781 -128.492188 72.6875 -127.890625 L 68 -126.59375 C 64.59375 -125.519531 62.890625 -123.453125 62.890625 -120.390625 L 62.890625 -72.6875 L 112.796875 -72.6875 L 112.796875 -120.390625 C 112.796875 -123.453125 111.09375 -125.519531 107.6875 -126.59375 L 102.984375 -127.890625 C 101.328125 -128.492188 100.128906 -129.328125 99.390625 -130.390625 C 98.660156 -131.453125 98.296875 -132.71875 98.296875 -134.1875 C 98.296875 -135.988281 98.894531 -137.40625 100.09375 -138.4375 C 101.289062 -139.46875 103.125 -139.984375 105.59375 -139.984375 L 158.59375 -139.984375 C 161.125 -139.984375 162.988281 -139.46875 164.1875 -138.4375 C 165.382812 -137.40625 165.984375 -135.988281 165.984375 -134.1875 C 165.984375 -132.71875 165.632812 -131.453125 164.9375 -130.390625 C 164.238281 -129.328125 163.019531 -128.492188 161.28125 -127.890625 L 156.59375 -126.59375 C 153.1875 -125.519531 151.484375 -123.453125 151.484375 -120.390625 L 151.484375 -19.59375 C 151.484375 -16.59375 153.1875 -14.53125 156.59375 -13.40625 L 161.28125 -12.09375 C 163.019531 -11.5 164.238281 -10.679688 164.9375 -9.640625 C 165.632812 -8.609375 165.984375 -7.328125 165.984375 -5.796875 C 165.984375 -3.992188 165.382812 -2.578125 164.1875 -1.546875 C 162.988281 -0.515625 161.125 0 158.59375 0 L 105.59375 0 C 103.125 0 101.289062 -0.515625 100.09375 -1.546875 C 98.894531 -2.578125 98.296875 -3.992188 98.296875 -5.796875 C 98.296875 -7.328125 98.660156 -8.609375 99.390625 -9.640625 C 100.128906 -10.679688 101.328125 -11.5 102.984375 -12.09375 L 107.6875 -13.40625 C 111.09375 -14.53125 112.796875 -16.59375 112.796875 -19.59375 L 112.796875 -59.890625 L 62.890625 -59.890625 Z M 62.890625 -19.59375 "/></g></g></g><g fill="#8cbdb9" fill-opacity="1"><g transform="translate(747.758531, 259.86947)"><g><path d="M 9.703125 -5.796875 C 9.703125 -7.328125 10.082031 -8.609375 10.84375 -9.640625 C 11.613281 -10.679688 12.832031 -11.5 14.5 -12.09375 L 19.203125 -13.40625 C 22.535156 -14.53125 24.203125 -16.59375 24.203125 -19.59375 L 24.203125 -120.390625 C 24.203125 -123.390625 22.535156 -125.457031 19.203125 -126.59375 L 14.5 -127.890625 C 12.832031 -128.492188 11.613281 -129.328125 10.84375 -130.390625 C 10.082031 -131.453125 9.703125 -132.71875 9.703125 -134.1875 C 9.703125 -135.988281 10.300781 -137.40625 11.5 -138.4375 C 12.695312 -139.46875 14.5625 -139.984375 17.09375 -139.984375 L 74.796875 -139.984375 C 87.128906 -139.984375 98.328125 -138.164062 108.390625 -134.53125 C 118.453125 -130.90625 127.113281 -125.757812 134.375 -119.09375 C 141.644531 -112.425781 147.226562 -104.523438 151.125 -95.390625 C 155.03125 -86.253906 156.984375 -76.222656 156.984375 -65.296875 C 156.984375 -55.898438 155.316406 -47.21875 151.984375 -39.25 C 148.648438 -31.28125 143.816406 -24.363281 137.484375 -18.5 C 131.148438 -12.632812 123.5 -8.082031 114.53125 -4.84375 C 105.570312 -1.613281 95.457031 0 84.1875 0 L 17.09375 0 C 14.5625 0 12.695312 -0.515625 11.5 -1.546875 C 10.300781 -2.578125 9.703125 -3.992188 9.703125 -5.796875 Z M 79.6875 -12.296875 C 87.019531 -12.296875 93.484375 -14.195312 99.078125 -18 C 104.679688 -21.800781 109.082031 -27.648438 112.28125 -35.546875 C 115.488281 -43.441406 117.09375 -53.523438 117.09375 -65.796875 C 117.09375 -78.660156 115.207031 -89.707031 111.4375 -98.9375 C 107.675781 -108.175781 102.3125 -115.273438 95.34375 -120.234375 C 88.375 -125.203125 80.023438 -127.6875 70.296875 -127.6875 L 63 -127.6875 L 63 -22.5 C 63 -18.894531 63.945312 -16.289062 65.84375 -14.6875 C 67.738281 -13.09375 70.519531 -12.296875 74.1875 -12.296875 Z M 79.6875 -12.296875 "/></g></g></g><g fill="#dbd5e2" fill-opacity="1"><g transform="translate(911.550731, 259.86947)"><g><path d="M 103.59375 -60.09375 C 103.59375 -55.957031 102.441406 -52.753906 100.140625 -50.484375 C 97.835938 -48.222656 94.519531 -47.09375 90.1875 -47.09375 L 38.5 -47.09375 C 40.09375 -38.425781 43.609375 -31.972656 49.046875 -27.734375 C 54.484375 -23.503906 61.265625 -21.390625 69.390625 -21.390625 C 74.523438 -21.390625 79.109375 -22.222656 83.140625 -23.890625 C 87.171875 -25.554688 90.65625 -28.222656 93.59375 -31.890625 C 95.195312 -33.429688 96.429688 -34.46875 97.296875 -35 C 98.160156 -35.53125 99.023438 -35.796875 99.890625 -35.796875 C 101.085938 -35.796875 101.953125 -35.226562 102.484375 -34.09375 C 103.023438 -32.957031 103.296875 -31.554688 103.296875 -29.890625 C 103.222656 -25.492188 102.050781 -21.34375 99.78125 -17.4375 C 97.519531 -13.539062 94.375 -10.09375 90.34375 -7.09375 C 86.3125 -4.09375 81.546875 -1.726562 76.046875 0 C 70.546875 1.726562 64.460938 2.59375 57.796875 2.59375 C 50.328125 2.59375 43.441406 1.460938 37.140625 -0.796875 C 30.847656 -3.066406 25.367188 -6.316406 20.703125 -10.546875 C 16.035156 -14.785156 12.414062 -19.851562 9.84375 -25.75 C 7.28125 -31.644531 6 -38.191406 6 -45.390625 C 6 -55.921875 8.097656 -65.15625 12.296875 -73.09375 C 16.492188 -81.03125 22.554688 -87.210938 30.484375 -91.640625 C 38.421875 -96.078125 47.957031 -98.296875 59.09375 -98.296875 C 68.695312 -98.296875 76.8125 -96.660156 83.4375 -93.390625 C 90.070312 -90.128906 95.085938 -85.628906 98.484375 -79.890625 C 101.890625 -74.160156 103.59375 -67.5625 103.59375 -60.09375 Z M 37.5 -58.296875 C 37.5 -57.960938 37.5 -57.613281 37.5 -57.25 C 37.5 -56.882812 37.5 -56.535156 37.5 -56.203125 L 63.1875 -56.203125 C 64.988281 -56.203125 66.320312 -56.582031 67.1875 -57.34375 C 68.0625 -58.113281 68.5 -59.363281 68.5 -61.09375 C 68.5 -69.625 67.210938 -75.921875 64.640625 -79.984375 C 62.078125 -84.054688 58.628906 -86.09375 54.296875 -86.09375 C 49.429688 -86.09375 45.414062 -83.722656 42.25 -78.984375 C 39.082031 -74.253906 37.5 -67.359375 37.5 -58.296875 Z M 37.5 -58.296875 "/></g></g></g><g fill="#dbd5e2" fill-opacity="1"><g transform="translate(1021.139845, 259.86947)"><g><path d="M 50.296875 -87.296875 C 46.023438 -87.296875 42.773438 -86.3125 40.546875 -84.34375 C 38.316406 -82.375 37.203125 -79.925781 37.203125 -77 C 37.203125 -75.257812 37.566406 -73.625 38.296875 -72.09375 C 39.023438 -70.5625 40.554688 -69.175781 42.890625 -67.9375 C 45.222656 -66.707031 48.757812 -65.625 53.5 -64.6875 C 62.03125 -63.09375 69.023438 -61.160156 74.484375 -58.890625 C 79.953125 -56.628906 84.21875 -54.046875 87.28125 -51.140625 C 90.351562 -48.242188 92.503906 -45.03125 93.734375 -41.5 C 94.972656 -37.96875 95.59375 -34.132812 95.59375 -30 C 95.59375 -19.9375 92.054688 -11.988281 84.984375 -6.15625 C 77.921875 -0.320312 67.554688 2.59375 53.890625 2.59375 C 49.160156 2.59375 45.328125 2.207031 42.390625 1.4375 C 39.460938 0.675781 37.097656 -0.0820312 35.296875 -0.84375 C 33.492188 -1.613281 31.859375 -2 30.390625 -2 C 28.859375 -2 27.609375 -1.613281 26.640625 -0.84375 C 25.679688 -0.0820312 24.75 0.695312 23.84375 1.5 C 22.945312 2.300781 21.734375 2.703125 20.203125 2.703125 C 18.734375 2.703125 17.648438 2.285156 16.953125 1.453125 C 16.253906 0.617188 15.570312 -0.863281 14.90625 -3 L 8.90625 -21.796875 C 7.101562 -27.660156 7.9375 -31.257812 11.40625 -32.59375 C 13.269531 -33.332031 14.882812 -33.367188 16.25 -32.703125 C 17.613281 -32.035156 18.929688 -30.734375 20.203125 -28.796875 C 24.734375 -21.597656 29.644531 -16.378906 34.9375 -13.140625 C 40.238281 -9.910156 45.828125 -8.296875 51.703125 -8.296875 C 56.828125 -8.296875 60.65625 -9.3125 63.1875 -11.34375 C 65.726562 -13.382812 67 -16.035156 67 -19.296875 C 67 -21.359375 66.460938 -23.171875 65.390625 -24.734375 C 64.328125 -26.304688 62.296875 -27.742188 59.296875 -29.046875 C 56.296875 -30.347656 51.828125 -31.597656 45.890625 -32.796875 C 36.765625 -34.597656 29.484375 -37.046875 24.046875 -40.140625 C 18.617188 -43.242188 14.738281 -47.03125 12.40625 -51.5 C 10.070312 -55.96875 8.90625 -61.195312 8.90625 -67.1875 C 8.90625 -73.457031 10.550781 -78.910156 13.84375 -83.546875 C 17.144531 -88.179688 21.726562 -91.796875 27.59375 -94.390625 C 33.457031 -96.992188 40.160156 -98.296875 47.703125 -98.296875 C 51.367188 -98.296875 54.445312 -98.046875 56.9375 -97.546875 C 59.4375 -97.046875 61.570312 -96.476562 63.34375 -95.84375 C 65.113281 -95.207031 66.644531 -94.640625 67.9375 -94.140625 C 69.238281 -93.640625 70.523438 -93.390625 71.796875 -93.390625 C 73.460938 -93.390625 74.84375 -93.804688 75.9375 -94.640625 C 77.039062 -95.472656 78.109375 -96.289062 79.140625 -97.09375 C 80.171875 -97.894531 81.390625 -98.296875 82.796875 -98.296875 C 84.054688 -98.296875 85.101562 -97.84375 85.9375 -96.9375 C 86.769531 -96.039062 87.390625 -94.523438 87.796875 -92.390625 L 91.796875 -74.296875 C 92.328125 -71.359375 92.410156 -69.125 92.046875 -67.59375 C 91.679688 -66.0625 90.628906 -64.925781 88.890625 -64.1875 C 87.160156 -63.457031 85.59375 -63.492188 84.1875 -64.296875 C 82.789062 -65.097656 81.359375 -66.5625 79.890625 -68.6875 C 75.492188 -75.5625 70.726562 -80.378906 65.59375 -83.140625 C 60.457031 -85.910156 55.359375 -87.296875 50.296875 -87.296875 Z M 50.296875 -87.296875 "/></g></g></g><g fill="#dbd5e2" fill-opacity="1"><g transform="translate(1123.429719, 259.86947)"><g><path d="M 32.5 -110.09375 C 26.03125 -110.09375 20.910156 -111.640625 17.140625 -114.734375 C 13.378906 -117.835938 11.5 -122.023438 11.5 -127.296875 C 11.5 -132.492188 13.378906 -136.625 17.140625 -139.6875 C 20.910156 -142.75 26.03125 -144.28125 32.5 -144.28125 C 38.96875 -144.28125 44.097656 -142.75 47.890625 -139.6875 C 51.691406 -136.625 53.59375 -132.492188 53.59375 -127.296875 C 53.59375 -122.023438 51.691406 -117.835938 47.890625 -114.734375 C 44.097656 -111.640625 38.96875 -110.09375 32.5 -110.09375 Z M 52.390625 -90.296875 L 52.390625 -18.703125 C 52.390625 -16.234375 52.640625 -14.484375 53.140625 -13.453125 C 53.640625 -12.421875 54.457031 -11.703125 55.59375 -11.296875 L 58.5 -10.296875 C 61.226562 -9.160156 62.59375 -7.425781 62.59375 -5.09375 C 62.59375 -1.695312 60.394531 0 56 0 L 13.5 0 C 11.226562 0 9.5625 -0.445312 8.5 -1.34375 C 7.4375 -2.25 6.90625 -3.5 6.90625 -5.09375 C 6.90625 -7.425781 8.238281 -9.160156 10.90625 -10.296875 L 14 -11.296875 C 15.132812 -11.765625 15.929688 -12.5 16.390625 -13.5 C 16.859375 -14.5 17.09375 -16.195312 17.09375 -18.59375 L 17.09375 -70.59375 C 17.09375 -72.53125 16.828125 -73.914062 16.296875 -74.75 C 15.765625 -75.582031 14.898438 -76.128906 13.703125 -76.390625 L 10 -76.890625 C 7.53125 -77.628906 6.296875 -79.128906 6.296875 -81.390625 C 6.296875 -82.796875 6.675781 -83.894531 7.4375 -84.6875 C 8.207031 -85.488281 9.628906 -86.289062 11.703125 -87.09375 L 32 -94.796875 C 35.132812 -95.992188 37.617188 -96.84375 39.453125 -97.34375 C 41.285156 -97.84375 42.867188 -98.09375 44.203125 -98.09375 C 46.929688 -98.09375 48.976562 -97.375 50.34375 -95.9375 C 51.707031 -94.507812 52.390625 -92.628906 52.390625 -90.296875 Z M 52.390625 -90.296875 "/></g></g></g><g fill="#dbd5e2" fill-opacity="1"><g transform="translate(1190.523054, 259.86947)"><g><path d="M 74.796875 -12.09375 C 85.265625 -10.894531 93.644531 -9.144531 99.9375 -6.84375 C 106.238281 -4.550781 110.789062 -1.570312 113.59375 2.09375 C 116.394531 5.757812 117.796875 10.328125 117.796875 15.796875 C 117.796875 22.191406 115.410156 27.890625 110.640625 32.890625 C 105.867188 37.890625 98.847656 41.820312 89.578125 44.6875 C 80.316406 47.5625 68.890625 49 55.296875 49 C 45.691406 49 37.65625 48.476562 31.1875 47.4375 C 24.726562 46.40625 19.597656 44.941406 15.796875 43.046875 C 11.992188 41.148438 9.257812 38.882812 7.59375 36.25 C 5.925781 33.613281 5.09375 30.695312 5.09375 27.5 C 5.09375 24.632812 5.859375 21.953125 7.390625 19.453125 C 8.929688 16.953125 11.5 14.71875 15.09375 12.75 C 18.695312 10.78125 23.597656 9.195312 29.796875 8 C 25.128906 6.269531 21.945312 4.238281 20.25 1.90625 C 18.550781 -0.425781 17.703125 -3.226562 17.703125 -6.5 C 17.703125 -9.226562 18.332031 -11.789062 19.59375 -14.1875 C 20.863281 -16.59375 22.976562 -18.726562 25.9375 -20.59375 C 28.90625 -22.457031 32.957031 -23.859375 38.09375 -24.796875 C 31.695312 -26.460938 26.265625 -28.925781 21.796875 -32.1875 C 17.328125 -35.457031 13.925781 -39.328125 11.59375 -43.796875 C 9.257812 -48.265625 8.09375 -53.128906 8.09375 -58.390625 C 8.09375 -66.253906 10.222656 -73.132812 14.484375 -79.03125 C 18.753906 -84.9375 24.804688 -89.539062 32.640625 -92.84375 C 40.472656 -96.144531 49.757812 -97.796875 60.5 -97.796875 C 63.832031 -97.796875 66.976562 -97.628906 69.9375 -97.296875 C 72.90625 -96.960938 75.722656 -96.460938 78.390625 -95.796875 C 81.859375 -103.796875 86.175781 -109.726562 91.34375 -113.59375 C 96.507812 -117.457031 102.023438 -119.390625 107.890625 -119.390625 C 112.554688 -119.390625 116.390625 -118.085938 119.390625 -115.484375 C 122.390625 -112.890625 123.890625 -109.125 123.890625 -104.1875 C 123.890625 -99.851562 122.789062 -96.335938 120.59375 -93.640625 C 118.394531 -90.941406 115.492188 -89.59375 111.890625 -89.59375 C 109.890625 -89.59375 108.289062 -89.941406 107.09375 -90.640625 C 105.894531 -91.335938 104.859375 -92.203125 103.984375 -93.234375 C 103.117188 -94.273438 102.285156 -95.328125 101.484375 -96.390625 C 100.691406 -97.460938 99.742188 -98.347656 98.640625 -99.046875 C 97.546875 -99.742188 96.097656 -100.09375 94.296875 -100.09375 C 92.554688 -100.09375 91.050781 -99.625 89.78125 -98.6875 C 88.519531 -97.757812 87.191406 -96.03125 85.796875 -93.5 C 93.390625 -90.5 99.203125 -86.226562 103.234375 -80.6875 C 107.273438 -75.15625 109.296875 -68.925781 109.296875 -62 C 109.296875 -54.132812 107.160156 -47.25 102.890625 -41.34375 C 98.628906 -35.445312 92.582031 -30.832031 84.75 -27.5 C 76.914062 -24.164062 67.628906 -22.5 56.890625 -22.5 C 55.296875 -22.5 53.75 -22.546875 52.25 -22.640625 C 50.75 -22.742188 49.265625 -22.863281 47.796875 -23 C 46.328125 -22.132812 45.59375 -21.066406 45.59375 -19.796875 C 45.59375 -19.203125 45.828125 -18.617188 46.296875 -18.046875 C 46.765625 -17.484375 47.914062 -16.898438 49.75 -16.296875 C 51.582031 -15.703125 54.476562 -15.070312 58.4375 -14.40625 C 62.40625 -13.738281 67.859375 -12.96875 74.796875 -12.09375 Z M 54.296875 -87.59375 C 45.429688 -86.59375 42.398438 -77.160156 45.203125 -59.296875 C 47.992188 -40.960938 53.925781 -32.296875 63 -33.296875 C 71.925781 -34.296875 74.988281 -43.726562 72.1875 -61.59375 C 70.789062 -70.726562 68.59375 -77.476562 65.59375 -81.84375 C 62.59375 -86.207031 58.828125 -88.125 54.296875 -87.59375 Z M 31.703125 19.59375 C 31.703125 23.195312 32.632812 26.347656 34.5 29.046875 C 36.363281 31.742188 39.460938 33.84375 43.796875 35.34375 C 48.128906 36.84375 53.992188 37.59375 61.390625 37.59375 C 67.796875 37.59375 72.847656 37.140625 76.546875 36.234375 C 80.242188 35.335938 82.875 34.023438 84.4375 32.296875 C 86.007812 30.566406 86.796875 28.429688 86.796875 25.890625 C 86.796875 23.691406 85.84375 21.875 83.9375 20.4375 C 82.039062 19.007812 78.773438 17.726562 74.140625 16.59375 C 69.503906 15.46875 63.085938 14.335938 54.890625 13.203125 C 51.554688 12.796875 48.503906 12.34375 45.734375 11.84375 C 42.972656 11.34375 40.425781 10.863281 38.09375 10.40625 C 36.03125 11.269531 34.445312 12.535156 33.34375 14.203125 C 32.25 15.867188 31.703125 17.664062 31.703125 19.59375 Z M 31.703125 19.59375 "/></g></g></g><g fill="#dbd5e2" fill-opacity="1"><g transform="translate(1310.311178, 259.86947)"><g><path d="M 52.390625 -90.296875 L 52.390625 -80.390625 C 59.992188 -86.992188 66.726562 -91.628906 72.59375 -94.296875 C 78.457031 -96.960938 83.925781 -98.296875 89 -98.296875 C 94.863281 -98.296875 99.976562 -96.992188 104.34375 -94.390625 C 108.707031 -91.796875 112.125 -88.164062 114.59375 -83.5 C 117.0625 -78.832031 118.296875 -73.363281 118.296875 -67.09375 L 118.296875 -18.796875 C 118.296875 -16.328125 118.5625 -14.5625 119.09375 -13.5 C 119.625 -12.4375 120.457031 -11.703125 121.59375 -11.296875 L 124.390625 -10.296875 C 125.859375 -9.703125 126.890625 -8.988281 127.484375 -8.15625 C 128.085938 -7.320312 128.390625 -6.300781 128.390625 -5.09375 C 128.390625 -1.695312 126.222656 0 121.890625 0 L 80.390625 0 C 78.054688 0 76.351562 -0.460938 75.28125 -1.390625 C 74.21875 -2.328125 73.6875 -3.664062 73.6875 -5.40625 C 73.6875 -7.53125 74.753906 -9.128906 76.890625 -10.203125 L 79.796875 -11.296875 C 80.929688 -11.828125 81.75 -12.59375 82.25 -13.59375 C 82.75 -14.59375 83 -16.328125 83 -18.796875 L 83 -62 C 83 -67.0625 81.796875 -70.859375 79.390625 -73.390625 C 76.992188 -75.921875 73.695312 -77.1875 69.5 -77.1875 C 66.894531 -77.1875 64.140625 -76.601562 61.234375 -75.4375 C 58.335938 -74.269531 55.523438 -72.519531 52.796875 -70.1875 L 52.390625 -69.890625 L 52.390625 -18.703125 C 52.390625 -16.234375 52.640625 -14.515625 53.140625 -13.546875 C 53.640625 -12.578125 54.457031 -11.828125 55.59375 -11.296875 L 58.390625 -10.203125 C 60.523438 -9.128906 61.59375 -7.53125 61.59375 -5.40625 C 61.59375 -3.664062 61.054688 -2.328125 59.984375 -1.390625 C 58.921875 -0.460938 57.222656 0 54.890625 0 L 13.5 0 C 11.226562 0 9.5625 -0.445312 8.5 -1.34375 C 7.4375 -2.25 6.90625 -3.5 6.90625 -5.09375 C 6.90625 -7.425781 8.238281 -9.160156 10.90625 -10.296875 L 14 -11.296875 C 15.132812 -11.765625 15.929688 -12.5 16.390625 -13.5 C 16.859375 -14.5 17.09375 -16.195312 17.09375 -18.59375 L 17.09375 -70.59375 C 17.09375 -72.53125 16.828125 -73.914062 16.296875 -74.75 C 15.765625 -75.582031 14.898438 -76.128906 13.703125 -76.390625 L 10 -76.890625 C 7.53125 -77.628906 6.296875 -79.128906 6.296875 -81.390625 C 6.296875 -82.796875 6.675781 -83.894531 7.4375 -84.6875 C 8.207031 -85.488281 9.628906 -86.289062 11.703125 -87.09375 L 32 -94.796875 C 35 -95.929688 37.429688 -96.765625 39.296875 -97.296875 C 41.160156 -97.828125 42.925781 -98.09375 44.59375 -98.09375 C 47.125 -98.09375 49.054688 -97.375 50.390625 -95.9375 C 51.722656 -94.507812 52.390625 -92.628906 52.390625 -90.296875 Z M 52.390625 -90.296875 "/></g></g></g><g fill="#dbd5e2" fill-opacity="1"><g transform="translate(1443.397974, 259.86947)"><g><path d="M 50.296875 -87.296875 C 46.023438 -87.296875 42.773438 -86.3125 40.546875 -84.34375 C 38.316406 -82.375 37.203125 -79.925781 37.203125 -77 C 37.203125 -75.257812 37.566406 -73.625 38.296875 -72.09375 C 39.023438 -70.5625 40.554688 -69.175781 42.890625 -67.9375 C 45.222656 -66.707031 48.757812 -65.625 53.5 -64.6875 C 62.03125 -63.09375 69.023438 -61.160156 74.484375 -58.890625 C 79.953125 -56.628906 84.21875 -54.046875 87.28125 -51.140625 C 90.351562 -48.242188 92.503906 -45.03125 93.734375 -41.5 C 94.972656 -37.96875 95.59375 -34.132812 95.59375 -30 C 95.59375 -19.9375 92.054688 -11.988281 84.984375 -6.15625 C 77.921875 -0.320312 67.554688 2.59375 53.890625 2.59375 C 49.160156 2.59375 45.328125 2.207031 42.390625 1.4375 C 39.460938 0.675781 37.097656 -0.0820312 35.296875 -0.84375 C 33.492188 -1.613281 31.859375 -2 30.390625 -2 C 28.859375 -2 27.609375 -1.613281 26.640625 -0.84375 C 25.679688 -0.0820312 24.75 0.695312 23.84375 1.5 C 22.945312 2.300781 21.734375 2.703125 20.203125 2.703125 C 18.734375 2.703125 17.648438 2.285156 16.953125 1.453125 C 16.253906 0.617188 15.570312 -0.863281 14.90625 -3 L 8.90625 -21.796875 C 7.101562 -27.660156 7.9375 -31.257812 11.40625 -32.59375 C 13.269531 -33.332031 14.882812 -33.367188 16.25 -32.703125 C 17.613281 -32.035156 18.929688 -30.734375 20.203125 -28.796875 C 24.734375 -21.597656 29.644531 -16.378906 34.9375 -13.140625 C 40.238281 -9.910156 45.828125 -8.296875 51.703125 -8.296875 C 56.828125 -8.296875 60.65625 -9.3125 63.1875 -11.34375 C 65.726562 -13.382812 67 -16.035156 67 -19.296875 C 67 -21.359375 66.460938 -23.171875 65.390625 -24.734375 C 64.328125 -26.304688 62.296875 -27.742188 59.296875 -29.046875 C 56.296875 -30.347656 51.828125 -31.597656 45.890625 -32.796875 C 36.765625 -34.597656 29.484375 -37.046875 24.046875 -40.140625 C 18.617188 -43.242188 14.738281 -47.03125 12.40625 -51.5 C 10.070312 -55.96875 8.90625 -61.195312 8.90625 -67.1875 C 8.90625 -73.457031 10.550781 -78.910156 13.84375 -83.546875 C 17.144531 -88.179688 21.726562 -91.796875 27.59375 -94.390625 C 33.457031 -96.992188 40.160156 -98.296875 47.703125 -98.296875 C 51.367188 -98.296875 54.445312 -98.046875 56.9375 -97.546875 C 59.4375 -97.046875 61.570312 -96.476562 63.34375 -95.84375 C 65.113281 -95.207031 66.644531 -94.640625 67.9375 -94.140625 C 69.238281 -93.640625 70.523438 -93.390625 71.796875 -93.390625 C 73.460938 -93.390625 74.84375 -93.804688 75.9375 -94.640625 C 77.039062 -95.472656 78.109375 -96.289062 79.140625 -97.09375 C 80.171875 -97.894531 81.390625 -98.296875 82.796875 -98.296875 C 84.054688 -98.296875 85.101562 -97.84375 85.9375 -96.9375 C 86.769531 -96.039062 87.390625 -94.523438 87.796875 -92.390625 L 91.796875 -74.296875 C 92.328125 -71.359375 92.410156 -69.125 92.046875 -67.59375 C 91.679688 -66.0625 90.628906 -64.925781 88.890625 -64.1875 C 87.160156 -63.457031 85.59375 -63.492188 84.1875 -64.296875 C 82.789062 -65.097656 81.359375 -66.5625 79.890625 -68.6875 C 75.492188 -75.5625 70.726562 -80.378906 65.59375 -83.140625 C 60.457031 -85.910156 55.359375 -87.296875 50.296875 -87.296875 Z M 50.296875 -87.296875 "/></g></g></g></svg>